<?xml version="1.0" encoding="utf-8"?>
<!-- Generator: Adobe Illustrator 15.1.0, SVG Export Plug-In  -->
<!DOCTYPE svg PUBLIC "-//W3C//DTD SVG 1.1//EN" "http://www.w3.org/Graphics/SVG/1.1/DTD/svg11.dtd" [
	<!ENTITY ns_flows "http://ns.adobe.com/Flows/1.0/">
]>
<svg version="1.1"
	 xmlns="http://www.w3.org/2000/svg" xmlns:xlink="http://www.w3.org/1999/xlink" xmlns:a="http://ns.adobe.com/AdobeSVGViewerExtensions/3.0/"
	 x="0px" y="0px" width="32px" height="32px" viewBox="-6.574 -2.789 32 32" enable-background="new -6.574 -2.789 32 32"
	 xml:space="preserve">
<defs>
</defs>
<rect y="8.849" fill="#313131" width="8.828" height="8.827"/>
<rect x="10.004" y="8.849" fill="#313131" width="8.828" height="8.827"/>
<rect y="18.846" fill="#313131" width="8.828" height="8.828"/>
<rect x="10.004" y="18.846" fill="#313131" width="8.828" height="8.828"/>
<path fill="#FFFFFF" d="M5.35,14.978H3.442l-0.458,1.544H1.618l2.132-6.519h1.413l2.048,6.519H5.808L5.35,14.978z M4.994,13.79
	c-0.025-0.08-0.054-0.183-0.088-0.309c-0.035-0.124-0.072-0.265-0.113-0.42c-0.041-0.155-0.079-0.313-0.117-0.468
	c-0.019-0.075-0.044-0.176-0.075-0.3L4.517,11.91c-0.025-0.131-0.05-0.239-0.075-0.327l-0.028-0.141l-0.037,0.132
	c-0.019,0.08-0.043,0.185-0.075,0.313c-0.032,0.128-0.064,0.265-0.098,0.413c-0.035,0.146-0.067,0.277-0.098,0.396
	c-0.063,0.237-0.119,0.443-0.168,0.617c-0.05,0.176-0.109,0.371-0.178,0.59h1.272L4.994,13.79z"/>
<path fill="#FFFFFF" d="M16.61,15.349c-0.072,0.208-0.178,0.396-0.319,0.561c-0.141,0.165-0.318,0.302-0.531,0.407
	c-0.213,0.106-0.464,0.165-0.751,0.178c-0.106,0.005-0.227,0.011-0.362,0.015c-0.135,0.002-0.292,0.004-0.474,0.004h-2.057v-6.5
	h2.193c0.199,0,0.375,0.007,0.527,0.023c0.152,0.015,0.292,0.042,0.42,0.078c0.127,0.039,0.243,0.086,0.345,0.146
	c0.103,0.059,0.204,0.132,0.303,0.22c0.355,0.312,0.532,0.697,0.532,1.159c0,0.448-0.146,0.81-0.439,1.086
	c-0.094,0.086-0.179,0.151-0.257,0.195c-0.078,0.044-0.191,0.091-0.341,0.141c0.412,0.118,0.734,0.313,0.968,0.584
	c0.234,0.271,0.351,0.621,0.351,1.053C16.719,14.923,16.683,15.139,16.61,15.349z M14.985,11.472
	c-0.065-0.126-0.156-0.212-0.273-0.263c-0.056-0.023-0.124-0.046-0.204-0.061c-0.08-0.017-0.191-0.023-0.333-0.023h-0.749v1.487
	h0.768c0.154,0,0.271-0.006,0.351-0.019c0.08-0.013,0.148-0.035,0.204-0.065c0.086-0.05,0.163-0.141,0.231-0.271
	c0.068-0.132,0.102-0.264,0.102-0.394C15.082,11.728,15.049,11.597,14.985,11.472z M15.091,14.031
	c-0.087-0.147-0.203-0.245-0.346-0.287c-0.081-0.025-0.155-0.042-0.22-0.047c-0.065-0.006-0.161-0.01-0.286-0.01h-0.813v1.749h0.851
	c0.137,0,0.256-0.01,0.355-0.031c0.1-0.022,0.184-0.063,0.252-0.117c0.1-0.074,0.181-0.179,0.243-0.315
	c0.063-0.138,0.094-0.283,0.094-0.438C15.222,14.35,15.178,14.182,15.091,14.031z"/>
<path fill="#FFFFFF" d="M5.962,26.488c-0.284,0.099-0.613,0.148-0.987,0.148c-0.892,0-1.603-0.3-2.132-0.898
	c-0.53-0.586-0.795-1.362-0.795-2.329c0-0.792,0.148-1.465,0.445-2.021c0.265-0.473,0.616-0.843,1.052-1.107
	s0.919-0.397,1.449-0.397c0.324,0,0.634,0.046,0.931,0.139c0.296,0.093,0.535,0.217,0.716,0.371l-0.59,0.883
	c-0.33-0.242-0.676-0.364-1.038-0.364c-0.218,0-0.427,0.051-0.626,0.149c-0.2,0.1-0.358,0.236-0.477,0.41
	c-0.244,0.367-0.365,0.925-0.365,1.672c0,0.447,0.02,0.804,0.061,1.068c0.041,0.265,0.11,0.487,0.21,0.667
	c0.268,0.486,0.686,0.729,1.253,0.729c0.193,0,0.379-0.031,0.557-0.094c0.177-0.062,0.363-0.171,0.556-0.327l0.599,0.831
	C6.519,26.233,6.246,26.39,5.962,26.488z"/>
<path fill="#FFFFFF" d="M16.132,25.538c-0.199,0.269-0.435,0.484-0.708,0.65c-0.273,0.165-0.562,0.26-0.866,0.285
	c-0.124,0.013-0.263,0.021-0.415,0.027c-0.152,0.007-0.324,0.01-0.517,0.01h-1.575V20.01h1.304c0.187,0,0.388,0.004,0.606,0.009
	c0.217,0.007,0.391,0.017,0.522,0.028c0.279,0.026,0.535,0.089,0.768,0.192c0.233,0.103,0.449,0.254,0.647,0.454
	c0.298,0.298,0.521,0.659,0.667,1.079c0.146,0.421,0.219,0.926,0.219,1.511C16.784,24.194,16.567,24.946,16.132,25.538z
	 M15.268,22.372c-0.044-0.309-0.132-0.572-0.264-0.79c-0.107-0.181-0.241-0.317-0.401-0.407c-0.161-0.091-0.373-0.136-0.637-0.136
	h-0.604v4.405h0.708c0.435,0,0.754-0.165,0.959-0.496c0.205-0.33,0.307-0.845,0.307-1.543
	C15.334,23.025,15.313,22.681,15.268,22.372z"/>
<path fill="none" stroke="#313131" stroke-width="1.5" stroke-miterlimit="10" d="M1.452,3.306c5.503-3.53,10.859-3.283,15.929,0"/>
<path fill="none" stroke="#313131" stroke-width="1.5" stroke-miterlimit="10" d="M3.759,6.012c3.845-2.703,7.587-2.514,11.13,0"/>
</svg>
